<svg width="40" height="40" viewBox="0 0 40 40" fill="none" xmlns="http://www.w3.org/2000/svg">
<path d="M36.6666 20V33.3334C36.6666 34.2174 36.3154 35.0653 35.6903 35.6904C35.0652 36.3155 34.2174 36.6667 33.3333 36.6667H6.66663C5.78257 36.6667 4.93472 36.3155 4.3096 35.6904C3.68448 35.0653 3.33329 34.2174 3.33329 33.3334V20C2.89127 20 2.46734 19.8244 2.15478 19.5119C1.84222 19.1993 1.66663 18.7754 1.66663 18.3334V13.3334C1.66663 12.4493 2.01782 11.6015 2.64294 10.9764C3.26806 10.3512 4.1159 10 4.99996 10H10.2833C10.1 9.48337 9.99996 8.91671 9.99996 8.33337C9.99996 7.00729 10.5267 5.73552 11.4644 4.79784C12.4021 3.86016 13.6739 3.33337 15 3.33337C16.6666 3.33337 18.1333 4.16671 19.05 5.40004V5.38337L20 6.66671L20.95 5.38337V5.40004C21.8666 4.16671 23.3333 3.33337 25 3.33337C26.326 3.33337 27.5978 3.86016 28.5355 4.79784C29.4732 5.73552 30 7.00729 30 8.33337C30 8.91671 29.9 9.48337 29.7166 10H35C35.884 10 36.7319 10.3512 37.357 10.9764C37.9821 11.6015 38.3333 12.4493 38.3333 13.3334V18.3334C38.3333 18.7754 38.1577 19.1993 37.8451 19.5119C37.5326 19.8244 37.1087 20 36.6666 20ZM6.66663 33.3334H18.3333V20H6.66663V33.3334ZM33.3333 33.3334V20H21.6666V33.3334H33.3333ZM15 6.66671C14.5579 6.66671 14.134 6.8423 13.8214 7.15486C13.5089 7.46742 13.3333 7.89135 13.3333 8.33337C13.3333 8.7754 13.5089 9.19932 13.8214 9.51188C14.134 9.82445 14.5579 10 15 10C15.442 10 15.8659 9.82445 16.1785 9.51188C16.491 9.19932 16.6666 8.7754 16.6666 8.33337C16.6666 7.89135 16.491 7.46742 16.1785 7.15486C15.8659 6.8423 15.442 6.66671 15 6.66671ZM25 6.66671C24.5579 6.66671 24.134 6.8423 23.8214 7.15486C23.5089 7.46742 23.3333 7.89135 23.3333 8.33337C23.3333 8.7754 23.5089 9.19932 23.8214 9.51188C24.134 9.82445 24.5579 10 25 10C25.442 10 25.8659 9.82445 26.1785 9.51188C26.491 9.19932 26.6666 8.7754 26.6666 8.33337C26.6666 7.89135 26.491 7.46742 26.1785 7.15486C25.8659 6.8423 25.442 6.66671 25 6.66671ZM4.99996 13.3334V16.6667H18.3333V13.3334H4.99996ZM21.6666 13.3334V16.6667H35V13.3334H21.6666Z" fill="white"/>
</svg>
