<svg width="28" height="26" viewBox="0 0 28 26" fill="none" xmlns="http://www.w3.org/2000/svg">
<path d="M15 2.25325C16.3333 1.29325 17.88 0.813249 19.6266 0.813249C20.5866 0.813249 21.64 1.06658 22.7866 1.59992C23.9333 2.11992 24.84 2.73325 25.5066 3.43992C26.88 5.14658 27.4533 7.13325 27.2533 9.39992C27.04 11.6666 26.2933 13.4399 25 14.6933L14.88 24.8133C14.6266 25.0666 14.3066 25.1866 13.9333 25.1866C13.56 25.1866 13.2533 25.0666 13 24.8133C12.7466 24.5599 12.6266 24.2532 12.6266 23.8799C12.6266 23.5066 12.7466 23.1866 13 22.9333L19.12 16.8132C19.4533 16.5199 19.4533 16.2132 19.12 15.8799C18.7866 15.5466 18.48 15.5466 18.1866 15.8799L12.0666 21.9999C11.8133 22.2533 11.5066 22.3733 11.12 22.3733C10.7466 22.3733 10.44 22.2533 10.1866 21.9999C9.93332 21.7466 9.81332 21.4399 9.81332 21.0666C9.81332 20.6932 9.93332 20.3733 10.1866 20.1199L16.3066 13.9999C16.6666 13.6666 16.6666 13.3332 16.3066 12.9999C16 12.6666 15.7066 12.6666 15.3733 12.9999L9.25332 19.1866C8.99998 19.4399 8.66665 19.5599 8.30665 19.5599C7.93332 19.5599 7.61332 19.4399 7.33332 19.1866C7.06665 18.9332 6.93332 18.6266 6.93332 18.2532C6.93332 17.8799 7.07998 17.5466 7.37332 17.2532L13.5066 11.1199C13.84 10.7866 13.84 10.4799 13.5066 10.1866C13.1733 9.89325 12.8533 9.89325 12.56 10.1866L6.37332 16.3332C6.07998 16.5999 5.77332 16.7466 5.43998 16.7466C5.06665 16.7466 4.74665 16.6132 4.50665 16.3332C4.25332 16.0666 4.11998 15.7466 4.11998 15.3732C4.11998 14.9999 4.25332 14.6932 4.50665 14.4399C8.58665 10.3332 11.1066 7.85325 12.0666 6.93325L16.8133 11.6266C17.3333 12.1199 17.9333 12.3732 18.6666 12.3732C19.6 12.3732 20.3333 11.9999 20.88 11.2532C21.2533 10.7066 21.3866 10.1066 21.28 9.43992C21.1733 8.77325 20.8933 8.21325 20.44 7.74658L15 2.25325ZM17.7466 10.6932L12.0666 4.99992L2.62665 14.4399C1.50665 13.3066 0.866649 11.5732 0.719982 9.21325C0.573316 6.86658 1.21332 4.82658 2.62665 3.11992C4.21332 1.54658 6.10665 0.746582 8.30665 0.746582C10.52 0.746582 12.4 1.54658 13.9333 3.11992L19.6266 8.81325C19.88 9.06658 20 9.37325 20 9.74658C20 10.1199 19.88 10.4399 19.6266 10.6932C19.3733 10.9332 19.0666 11.0666 18.6666 11.0666C18.3066 11.0666 18 10.9332 17.7466 10.6932Z" fill="white"/>
</svg>
