<svg width="44" height="44" viewBox="0 0 44 44" fill="none" xmlns="http://www.w3.org/2000/svg">
<g filter="url(#filter0_b_256_2958)">
<rect width="44" height="44" rx="9.77778" fill="white" fill-opacity="0.8"/>
<path d="M12.2223 13.4444H15.8889L18.3334 11H25.6667L28.1112 13.4444H31.7778C32.4261 13.4444 33.0479 13.702 33.5063 14.1604C33.9647 14.6188 34.2223 15.2406 34.2223 15.8889V30.5556C34.2223 31.2039 33.9647 31.8256 33.5063 32.284C33.0479 32.7425 32.4261 33 31.7778 33H12.2223C11.574 33 10.9522 32.7425 10.4938 32.284C10.0354 31.8256 9.77783 31.2039 9.77783 30.5556V15.8889C9.77783 15.2406 10.0354 14.6188 10.4938 14.1604C10.9522 13.702 11.574 13.4444 12.2223 13.4444ZM22.0001 17.1111C20.3793 17.1111 18.8249 17.755 17.6788 18.901C16.5328 20.0471 15.8889 21.6015 15.8889 23.2222C15.8889 24.843 16.5328 26.3974 17.6788 27.5434C18.8249 28.6895 20.3793 29.3333 22.0001 29.3333C23.6208 29.3333 25.1752 28.6895 26.3213 27.5434C27.4673 26.3974 28.1112 24.843 28.1112 23.2222C28.1112 21.6015 27.4673 20.0471 26.3213 18.901C25.1752 17.755 23.6208 17.1111 22.0001 17.1111ZM22.0001 19.5556C22.9725 19.5556 23.9051 19.9419 24.5928 20.6295C25.2804 21.3171 25.6667 22.2498 25.6667 23.2222C25.6667 24.1947 25.2804 25.1273 24.5928 25.8149C23.9051 26.5026 22.9725 26.8889 22.0001 26.8889C21.0276 26.8889 20.095 26.5026 19.4073 25.8149C18.7197 25.1273 18.3334 24.1947 18.3334 23.2222C18.3334 22.2498 18.7197 21.3171 19.4073 20.6295C20.095 19.9419 21.0276 19.5556 22.0001 19.5556Z" fill="#303030"/>
</g>
<defs>
<filter id="filter0_b_256_2958" x="-4.88889" y="-4.88889" width="53.7778" height="53.7778" filterUnits="userSpaceOnUse" color-interpolation-filters="sRGB">
<feFlood flood-opacity="0" result="BackgroundImageFix"/>
<feGaussianBlur in="BackgroundImageFix" stdDeviation="2.44444"/>
<feComposite in2="SourceAlpha" operator="in" result="effect1_backgroundBlur_256_2958"/>
<feBlend mode="normal" in="SourceGraphic" in2="effect1_backgroundBlur_256_2958" result="shape"/>
</filter>
</defs>
</svg>
