<svg width="34" height="34" viewBox="0 0 34 34" fill="none" xmlns="http://www.w3.org/2000/svg">
<path d="M0.333496 16.9999C0.333496 12.5796 2.08944 8.34041 5.21505 5.21481C8.34066 2.0892 12.5799 0.333252 17.0002 0.333252C19.1889 0.333252 21.3561 0.764348 23.3782 1.60193C25.4003 2.4395 27.2376 3.66716 28.7853 5.21481C30.3329 6.76245 31.5606 8.59977 32.3982 10.6219C33.2357 12.644 33.6668 14.8112 33.6668 16.9999C33.6668 21.4202 31.9109 25.6594 28.7853 28.785C25.6597 31.9106 21.4204 33.6666 17.0002 33.6666C14.8115 33.6666 12.6442 33.2355 10.6221 32.3979C8.60001 31.5603 6.76269 30.3327 5.21505 28.785C2.08944 25.6594 0.333496 21.4202 0.333496 16.9999ZM27.0002 15.3333H13.6668L19.5002 9.49992L17.1335 7.13325L7.26683 16.9999L17.1335 26.8666L19.5002 24.4999L13.6668 18.6666H27.0002V15.3333Z" fill="white"/>
</svg>
