<svg width="41" height="46" viewBox="0 0 41 46" fill="none" xmlns="http://www.w3.org/2000/svg">
<path d="M7.42138 30.4989C7.69954 30.4419 7.95215 30.3564 8.19057 30.2567C6.95874 29.7981 5.68717 28.8724 4.64834 27.5593C2.50825 24.8533 2.179 21.5577 3.91038 20.1962C5.54809 18.9116 8.44318 19.8174 10.5606 22.2043C9.87654 17.0886 7.19148 15.3283 4.32477 15.9208C1.35305 16.536 -0.364139 20.2959 0.493035 24.3207C1.34737 28.3455 4.44966 31.1113 7.42138 30.496V30.4989Z" fill="#FFA402"/>
<path d="M4.47514 13.3773H6.3456C6.75148 13.3773 7.06085 13.1522 7.00125 12.9016C7.00125 12.9016 6.6862 10.17 6.05041 8.81697C5.81767 8.3185 5.11376 8.3185 4.88102 8.81697C4.04655 10.6058 3.81381 12.9016 3.81381 12.9016C3.75704 13.1522 4.06926 13.3801 4.4723 13.3801L4.47514 13.3773Z" fill="#FFA402"/>
<path d="M13.4128 4.90894L15.2748 5.07129C15.6778 5.10547 16.0071 4.90894 15.9702 4.65258C15.9702 4.65258 15.8964 1.90388 15.3826 0.502466C15.1925 -0.0130934 14.4942 -0.0757581 14.2161 0.399924C13.2255 2.10896 12.7941 4.37344 12.7941 4.37344C12.7146 4.6184 13.007 4.87191 13.41 4.90609L13.4128 4.90894Z" fill="#FFA402"/>
<path d="M11.2847 19.3476C11.2847 16.277 12.7748 13.7961 14.8695 13.6138C17.0607 13.4229 19.1242 15.8127 19.6549 19.0456C20.2595 17.7098 20.532 16.0776 20.3333 14.0097C19.882 9.32977 17.2338 5.74364 14.4182 5.99999C11.6026 6.25635 9.68106 10.2612 10.1324 14.9411C10.2799 16.465 10.7029 18.0088 11.2876 19.3447L11.2847 19.3476ZM10.2658 13.5482V13.3773V13.722V13.5511V13.5482Z" fill="#FFA402"/>
<path d="M20.387 25.1923V25.2717C20.435 25.2717 20.4802 25.2717 20.5283 25.2717V25.1895C20.4802 25.1895 20.435 25.1895 20.387 25.1895V25.1923Z" fill="#FFA402"/>
<path d="M36.5881 15.8409C33.7214 15.2485 31.0363 17.0088 30.3523 22.1245C32.4725 19.7347 35.3648 18.8289 37.0025 20.1164C38.7339 21.4779 38.4046 24.7735 36.2645 27.4795C35.2285 28.7897 33.957 29.7183 32.7223 30.1769C32.9607 30.2766 33.2133 30.3621 33.4915 30.419C36.4632 31.0343 39.5655 28.2685 40.4198 24.2437C41.2742 20.2189 39.5598 16.459 36.5881 15.8438V15.8409Z" fill="#FFA402"/>
<path d="M34.573 13.2976H36.4435C36.8494 13.2976 37.1588 13.0726 37.102 12.819C37.102 12.819 36.8721 10.5232 36.0348 8.73445C35.802 8.23598 35.0981 8.23598 34.8654 8.73445C34.2296 10.0874 33.9145 12.819 33.9145 12.819C33.8549 13.0697 34.1672 13.2976 34.5702 13.2976H34.573Z" fill="#FFA402"/>
<path d="M25.6378 4.99154L27.4998 4.82918C27.9028 4.795 28.1952 4.5415 28.1157 4.29653C28.1157 4.29653 27.6843 2.02921 26.6937 0.32302C26.4184 -0.152662 25.7173 -0.0899977 25.5271 0.425562C25.0134 1.82697 24.9396 4.57568 24.9396 4.57568C24.9027 4.83203 25.2319 5.02857 25.635 4.99439L25.6378 4.99154Z" fill="#FFA402"/>
<path d="M26.0469 13.534C28.1416 13.7163 29.6317 16.1973 29.6317 19.2678C30.2164 17.9291 30.6393 16.3852 30.7869 14.8642C31.2382 10.1843 29.3166 6.17944 26.501 5.92309C23.6825 5.66673 21.0344 9.25286 20.5859 13.9328C20.3873 15.9979 20.6597 17.6328 21.2643 18.9687C21.7951 15.7358 23.8585 13.3432 26.0497 13.5369L26.0469 13.534ZM30.6506 13.4713V13.3004V13.6451V13.4742V13.4713Z" fill="#FFA402"/>
<path d="M35.4896 33.5923C35.2511 33.2277 34.9787 32.883 34.6778 32.5583C31.7089 29.351 30.3039 30.103 29.0693 29.0462C28.459 28.525 28.811 28.7044 27.8857 25.9728C27.1335 23.7539 24.3804 20.9539 20.5287 20.803C20.5287 20.8486 20.5287 20.8799 20.5287 20.8799C20.4805 20.8799 20.4322 20.8884 20.384 20.8884C18.0509 20.9796 16.118 22.042 14.7925 23.3608C13.9325 24.2154 13.3251 25.1781 13.0299 26.0526C12.1046 28.7842 12.4566 28.6047 11.8463 29.126C10.6145 30.1799 9.20951 29.4308 6.23778 32.6381C5.93692 32.9628 5.6616 33.3046 5.42602 33.672C3.25754 37.0104 4.654 39.9584 7.35324 41.4425V41.0209C7.18295 43.7696 9.40251 45.9999 12.1443 45.9999H29.2538C31.9927 45.9999 34.2151 43.7696 34.2151 41.0209V41.0522C36.429 39.4885 37.5104 36.7084 35.4867 33.5923H35.4896ZM32.5065 41.9352V41.0779C32.5065 43.0376 30.9227 44.627 28.9699 44.627H12.7744C10.8217 44.627 9.23789 43.0376 9.23789 41.0779V42.2628V37.7851C9.23789 37.7851 9.23222 37.7709 9.22938 37.7623C7.31067 33.5325 10.3988 31.4303 12.4083 30.0973C12.5218 30.0204 12.6354 29.9406 12.7461 29.858C13.081 29.6045 13.3932 29.3197 13.6742 29.0064C14.0829 28.5506 14.0403 28.4652 14.5598 27.7046C14.8124 27.3344 15.0252 26.9384 15.1984 26.5283C16.8134 22.7029 18.7292 22.5576 19.6318 22.5206C19.8844 22.5092 20.1285 22.5348 20.3897 22.5206V22.4408C20.4379 22.4408 20.4833 22.438 20.5316 22.4408C20.7927 22.4522 21.0368 22.4294 21.2894 22.4408C22.192 22.4778 24.105 22.6231 25.7229 26.4485C25.896 26.8615 26.1089 27.2574 26.3615 27.6249C26.8809 28.3854 26.8383 28.4737 27.2471 28.9266C27.5593 29.2741 27.9112 29.5846 28.2887 29.858C28.3625 29.9122 28.4363 29.9663 28.513 30.0175C29.759 30.8436 31.4194 31.9687 32.0438 33.7091C32.339 34.2275 32.5122 34.8256 32.5122 35.4665V41.9324L32.5065 41.9352Z" fill="#FFA402"/>
<path d="M19.9472 35.1818H20.9378C22.2803 35.1818 23.3674 36.2756 23.3674 37.62V43.6501C23.3674 43.7128 23.3163 43.7669 23.251 43.7669H17.6652C17.6028 43.7669 17.5488 43.7156 17.5488 43.6501V37.583C17.5488 36.2556 18.6217 35.179 19.9444 35.179L19.9472 35.1818Z" fill="#FFA402"/>
</svg>
