<svg width="12" height="10" viewBox="0 0 12 10" fill="none" xmlns="http://www.w3.org/2000/svg">
<path d="M4.17495 0.499709C4.76495 0.414709 5.38995 1.05971 5.56995 1.94971C5.74995 2.83471 5.42495 3.62471 4.83495 3.71471C4.24995 3.80471 3.61995 3.15971 3.43495 2.26971C3.24995 1.38471 3.58495 0.594709 4.17495 0.499709ZM7.74995 0.499709C8.34495 0.594709 8.67495 1.38471 8.49995 2.26971C8.30995 3.15971 7.68495 3.80471 7.09495 3.71471C6.49995 3.62471 6.17495 2.83471 6.35995 1.94971C6.53995 1.05971 7.16495 0.414709 7.74995 0.499709ZM1.49995 2.79971C2.06995 2.55471 2.84495 2.99971 3.24995 3.77471C3.62995 4.56471 3.49995 5.39471 2.93495 5.63971C2.36995 5.88471 1.59995 5.44471 1.20495 4.65971C0.809953 3.87471 0.949953 3.03971 1.49995 2.79971ZM10.5 2.79971C11.05 3.03971 11.19 3.87471 10.795 4.65971C10.4 5.44471 9.62995 5.88471 9.06495 5.63971C8.49995 5.39471 8.36995 4.56471 8.74995 3.77471C9.15495 2.99971 9.92995 2.55471 10.5 2.79971ZM9.66495 8.18971C9.68495 8.65971 9.32495 9.17971 8.89495 9.37471C7.99995 9.78471 6.93995 8.93471 5.94495 8.93471C4.94995 8.93471 3.87995 9.81971 2.99995 9.37471C2.49995 9.12971 2.15495 8.47971 2.21995 7.93971C2.30995 7.19471 3.20495 6.79471 3.73495 6.24971C4.43995 5.54471 4.93995 4.21971 5.94495 4.21971C6.94495 4.21971 7.47495 5.52471 8.14995 6.24971C8.70495 6.85971 9.62995 7.37471 9.66495 8.18971Z" fill="#303030"/>
</svg>
