<svg width="20" height="20" viewBox="0 0 20 20" fill="none" xmlns="http://www.w3.org/2000/svg">
<rect x="0.5" y="0.5" width="19" height="19" rx="9.5" fill="#C1A88D"/>
<path d="M8.17495 5.5002C8.76495 5.4152 9.38995 6.0602 9.56995 6.9502C9.74995 7.8352 9.42495 8.6252 8.83495 8.7152C8.24995 8.8052 7.61995 8.1602 7.43495 7.2702C7.24995 6.3852 7.58495 5.5952 8.17495 5.5002ZM11.75 5.5002C12.345 5.5952 12.675 6.3852 12.5 7.2702C12.31 8.1602 11.685 8.8052 11.095 8.7152C10.5 8.6252 10.175 7.8352 10.36 6.9502C10.54 6.0602 11.165 5.4152 11.75 5.5002ZM5.49995 7.8002C6.06995 7.5552 6.84495 8.0002 7.24995 8.7752C7.62995 9.5652 7.49995 10.3952 6.93495 10.6402C6.36995 10.8852 5.59995 10.4452 5.20495 9.6602C4.80995 8.8752 4.94995 8.0402 5.49995 7.8002ZM14.5 7.8002C15.05 8.0402 15.19 8.8752 14.795 9.6602C14.4 10.4452 13.63 10.8852 13.065 10.6402C12.5 10.3952 12.37 9.5652 12.75 8.7752C13.155 8.0002 13.93 7.5552 14.5 7.8002ZM13.665 13.1902C13.685 13.6602 13.325 14.1802 12.895 14.3752C12 14.7852 10.94 13.9352 9.94495 13.9352C8.94995 13.9352 7.87995 14.8202 6.99995 14.3752C6.49995 14.1302 6.15495 13.4802 6.21995 12.9402C6.30995 12.1952 7.20495 11.7952 7.73495 11.2502C8.43995 10.5452 8.93995 9.2202 9.94495 9.2202C10.945 9.2202 11.475 10.5252 12.15 11.2502C12.705 11.8602 13.63 12.3752 13.665 13.1902Z" fill="black"/>
<rect x="0.5" y="0.5" width="19" height="19" rx="9.5" stroke="black"/>
</svg>
