<svg width="216" height="46" viewBox="0 0 216 46" fill="none" xmlns="http://www.w3.org/2000/svg">
<path d="M7.92138 30.4991C8.19954 30.4421 8.45215 30.3567 8.69057 30.257C7.45874 29.7984 6.18717 28.8727 5.14834 27.5596C3.00825 24.8536 2.679 21.558 4.41038 20.1964C6.04809 18.9118 8.94318 19.8176 11.0606 22.2046C10.3765 17.0888 7.69148 15.3285 4.82477 15.921C1.85305 16.5363 0.135861 20.2961 0.993035 24.3209C1.84737 28.3457 4.94966 31.1115 7.92138 30.4962V30.4991Z" fill="#FFA402"/>
<path d="M4.97514 13.377H6.8456C7.25148 13.377 7.56085 13.152 7.50125 12.9013C7.50125 12.9013 7.1862 10.1697 6.55041 8.81672C6.31767 8.31825 5.61376 8.31825 5.38102 8.81672C4.54655 10.6055 4.31381 12.9013 4.31381 12.9013C4.25704 13.152 4.56926 13.3799 4.9723 13.3799L4.97514 13.377Z" fill="#FFA402"/>
<path d="M13.9128 4.90918L15.7748 5.07154C16.1778 5.10572 16.5071 4.90918 16.4702 4.65282C16.4702 4.65282 16.3964 1.90412 15.8826 0.502711C15.6925 -0.0128492 14.9942 -0.075514 14.7161 0.400168C13.7255 2.10921 13.2941 4.37368 13.2941 4.37368C13.2146 4.61864 13.507 4.87215 13.91 4.90633L13.9128 4.90918Z" fill="#FFA402"/>
<path d="M11.7847 19.3473C11.7847 16.2768 13.2748 13.7958 15.3695 13.6135C17.5607 13.4227 19.6242 15.8125 20.1549 19.0454C20.7595 17.7095 21.032 16.0774 20.8333 14.0094C20.382 9.32952 17.7338 5.74339 14.9182 5.99975C12.1026 6.2561 10.1811 10.2609 10.6324 14.9409C10.7799 16.4648 11.2029 18.0086 11.7876 19.3445L11.7847 19.3473ZM10.7658 13.548V13.3771V13.7218V13.5508V13.548Z" fill="#FFA402"/>
<path d="M20.887 25.1923V25.2717C20.935 25.2717 20.9802 25.2717 21.0283 25.2717V25.1895C20.9802 25.1895 20.935 25.1895 20.887 25.1895V25.1923Z" fill="#FFA402"/>
<path d="M37.0881 15.8409C34.2214 15.2485 31.5363 17.0088 30.8523 22.1245C32.9725 19.7347 35.8648 18.8289 37.5025 20.1164C39.2339 21.4779 38.9046 24.7735 36.7645 27.4795C35.7285 28.7897 34.457 29.7183 33.2223 30.1769C33.4607 30.2766 33.7133 30.3621 33.9915 30.419C36.9632 31.0343 40.0655 28.2685 40.9198 24.2437C41.7742 20.2189 40.0598 16.459 37.0881 15.8438V15.8409Z" fill="#FFA402"/>
<path d="M35.073 13.2973H36.9435C37.3494 13.2973 37.6588 13.0723 37.602 12.8188C37.602 12.8188 37.3721 10.523 36.5348 8.7342C36.302 8.23573 35.5981 8.23573 35.3654 8.7342C34.7296 10.0872 34.4145 12.8188 34.4145 12.8188C34.3549 13.0695 34.6672 13.2973 35.0702 13.2973H35.073Z" fill="#FFA402"/>
<path d="M26.1378 4.99154L27.9998 4.82918C28.4028 4.795 28.6952 4.5415 28.6157 4.29653C28.6157 4.29653 28.1843 2.02921 27.1937 0.32302C26.9184 -0.152662 26.2173 -0.0899977 26.0271 0.425562C25.5134 1.82697 25.4396 4.57568 25.4396 4.57568C25.4027 4.83203 25.7319 5.02857 26.135 4.99439L26.1378 4.99154Z" fill="#FFA402"/>
<path d="M26.5469 13.534C28.6416 13.7163 30.1317 16.1973 30.1317 19.2678C30.7164 17.9291 31.1393 16.3852 31.2869 14.8642C31.7382 10.1843 29.8166 6.17944 27.001 5.92309C24.1825 5.66673 21.5344 9.25286 21.0859 13.9328C20.8873 15.9979 21.1597 17.6328 21.7643 18.9687C22.2951 15.7358 24.3585 13.3432 26.5497 13.5369L26.5469 13.534ZM31.1506 13.4713V13.3004V13.6451V13.4742V13.4713Z" fill="#FFA402"/>
<path d="M35.9896 33.5925C35.7511 33.2279 35.4787 32.8833 35.1778 32.5586C32.2089 29.3513 30.8039 30.1032 29.5693 29.0465C28.959 28.5252 29.311 28.7047 28.3857 25.9731C27.6335 23.7542 24.8804 20.9542 21.0287 20.8032C21.0287 20.8488 21.0287 20.8801 21.0287 20.8801C20.9805 20.8801 20.9322 20.8887 20.884 20.8887C18.5509 20.9798 16.618 22.0423 15.2925 23.3611C14.4325 24.2156 13.8251 25.1784 13.5299 26.0528C12.6046 28.7844 12.9566 28.605 12.3463 29.1262C11.1145 30.1801 9.70951 29.431 6.73778 32.6383C6.43692 32.963 6.1616 33.3048 5.92602 33.6723C3.75754 37.0106 5.154 39.9587 7.85324 41.4427V41.0211C7.68295 43.7698 9.90251 46.0001 12.6443 46.0001H29.7538C32.4927 46.0001 34.7151 43.7698 34.7151 41.0211V41.0525C36.929 39.4887 38.0104 36.7087 35.9867 33.5925H35.9896ZM33.0065 41.9355V41.0781C33.0065 43.0378 31.4227 44.6272 29.4699 44.6272H13.2744C11.3217 44.6272 9.73789 43.0378 9.73789 41.0781V42.263V37.7854C9.73789 37.7854 9.73222 37.7711 9.72938 37.7626C7.81067 33.5327 10.8988 31.4306 12.9083 30.0975C13.0218 30.0206 13.1354 29.9409 13.2461 29.8583C13.581 29.6048 13.8932 29.3199 14.1742 29.0066C14.5829 28.5509 14.5403 28.4654 15.0598 27.7049C15.3124 27.3346 15.5252 26.9387 15.6984 26.5285C17.3134 22.7031 19.2292 22.5578 20.1318 22.5208C20.3844 22.5094 20.6285 22.535 20.8897 22.5208V22.4411C20.9379 22.4411 20.9833 22.4382 21.0316 22.4411C21.2927 22.4524 21.5368 22.4297 21.7894 22.4411C22.692 22.4781 24.605 22.6233 26.2229 26.4487C26.396 26.8618 26.6089 27.2577 26.8615 27.6251C27.3809 28.3857 27.3383 28.474 27.7471 28.9268C28.0593 29.2744 28.4112 29.5848 28.7887 29.8583C28.8625 29.9124 28.9363 29.9665 29.013 30.0178C30.259 30.8438 31.9194 31.9689 32.5438 33.7093C32.839 34.2277 33.0122 34.8259 33.0122 35.4668V41.9326L33.0065 41.9355Z" fill="#FFA402"/>
<path d="M20.4472 35.1816H21.4378C22.7803 35.1816 23.8674 36.2753 23.8674 37.6198V43.6498C23.8674 43.7125 23.8163 43.7666 23.751 43.7666H18.1652C18.1028 43.7666 18.0488 43.7154 18.0488 43.6498V37.5828C18.0488 36.2554 19.1217 35.1787 20.4444 35.1787L20.4472 35.1816Z" fill="#FFA402"/>
<path d="M51.0513 30.236C50.902 28.0387 50.8273 25.0733 50.8273 21.34C50.8273 17.5853 50.8806 15.1533 50.9873 14.044C51.094 13.3613 51.5633 12.9133 52.3953 12.7C53.2273 12.4653 54.326 12.348 55.6913 12.348C57.6966 12.348 59.382 12.7853 60.7473 13.66C62.134 14.5133 62.8273 15.7827 62.8273 17.468C62.8273 18.8547 62.6353 20.0173 62.2513 20.956C61.8673 21.8733 61.3873 22.556 60.8113 23.004C59.8726 23.7293 58.486 24.092 56.6513 24.092C55.862 24.092 54.8273 23.9853 53.5473 23.772C53.654 28.0387 53.6966 30.7267 53.6753 31.836C53.654 32.9453 53.2806 33.5 52.5553 33.5C52.086 33.5 51.7873 33.4147 51.6593 33.244C51.5313 33.0733 51.446 32.956 51.4033 32.892C51.3606 32.8067 51.318 32.6893 51.2753 32.54C51.2326 32.3907 51.2006 32.2733 51.1793 32.188C51.158 32.0813 51.1366 31.932 51.1153 31.74C51.1153 31.548 51.1046 31.3987 51.0833 31.292C51.062 30.972 51.0513 30.62 51.0513 30.236ZM60.1713 17.564C60.1713 16.6893 59.702 16.0067 58.7633 15.516C57.8246 15.004 56.822 14.748 55.7553 14.748C54.6886 14.748 53.942 14.844 53.5153 15.036C53.43 16.2947 53.3873 17.4573 53.3873 18.524C53.3873 19.5693 53.43 20.5187 53.5153 21.372C54.0913 21.436 54.486 21.4893 54.6993 21.532C55.254 21.596 55.7233 21.628 56.1073 21.628C56.5126 21.628 56.7793 21.628 56.9073 21.628C57.0566 21.6067 57.3233 21.5747 57.7073 21.532C58.1126 21.468 58.4006 21.372 58.5713 21.244C58.742 21.116 58.9553 20.9453 59.2113 20.732C59.4673 20.5187 59.6486 20.2733 59.7553 19.996C60.0326 19.228 60.1713 18.4173 60.1713 17.564ZM66.3935 22.492C66.0949 22.3 65.9455 22.0227 65.9455 21.66C65.9455 21.2973 66.0629 20.9667 66.2975 20.668C66.2122 18.5347 66.1695 16.284 66.1695 13.916C66.2975 13.404 66.4895 13.0307 66.7455 12.796C67.0229 12.5613 67.4175 12.412 67.9295 12.348C70.7455 12.476 73.7962 12.54 77.0815 12.54C77.8922 12.7107 78.2975 13.0627 78.2975 13.596C78.2975 14.492 77.4229 15.0147 75.6735 15.164C75.2042 15.1853 74.6922 15.196 74.1375 15.196H72.0575C71.6522 15.196 70.5322 15.1107 68.6975 14.94C68.6975 17.6067 68.7402 19.4413 68.8255 20.444C69.9562 20.4653 72.1322 20.476 75.3535 20.476C76.1215 20.6253 76.5055 20.9773 76.5055 21.532C76.5055 22.0653 76.1962 22.4813 75.5775 22.78C75.5135 22.8227 75.3962 22.8653 75.2255 22.908L69.6895 22.812C69.3482 22.812 69.0709 22.8333 68.8575 22.876L68.9855 28.38C68.9855 29.6173 68.9535 30.5027 68.8895 31.036L76.3135 30.94C76.9962 31.0467 77.3375 31.3347 77.3375 31.804C77.3375 32.124 77.1882 32.444 76.8895 32.764C76.6122 33.084 76.2815 33.2867 75.8975 33.372L67.7055 33.5C67.2149 33.5 66.8735 33.4147 66.6815 33.244C66.4895 33.052 66.3935 32.7427 66.3935 32.316C66.4789 31.7187 66.5215 30.7587 66.5215 29.436V27.196L66.3935 22.492ZM80.1978 12.732L93.1578 12.54C93.7765 12.732 94.0858 13.0413 94.0858 13.468C94.0858 14.5347 93.6485 15.068 92.7738 15.068C91.1738 15.068 89.4778 15.1107 87.6858 15.196C87.5791 17.0307 87.5258 18.4173 87.5258 19.356C87.5258 20.2733 87.5258 20.86 87.5258 21.116L87.6538 32.348C87.6538 33.0093 87.4831 33.3933 87.1418 33.5C86.8858 33.5853 86.5658 33.628 86.1818 33.628C85.5631 33.628 85.2218 33.276 85.1578 32.572C85.0298 30.9293 84.9658 27.868 84.9658 23.388C84.9658 18.8867 85.0298 16.1773 85.1578 15.26C84.7098 15.2813 84.0485 15.292 83.1738 15.292C82.2991 15.292 81.2111 15.2813 79.9098 15.26C79.5685 15.26 79.3018 15.1533 79.1098 14.94C78.9178 14.7267 78.8218 14.4707 78.8218 14.172C78.8218 13.852 78.9498 13.5427 79.2058 13.244C79.4831 12.9453 79.8138 12.7747 80.1978 12.732ZM102.542 12.732L115.502 12.54C116.12 12.732 116.43 13.0413 116.43 13.468C116.43 14.5347 115.992 15.068 115.118 15.068C113.518 15.068 111.822 15.1107 110.03 15.196C109.923 17.0307 109.87 18.4173 109.87 19.356C109.87 20.2733 109.87 20.86 109.87 21.116L109.998 32.348C109.998 33.0093 109.827 33.3933 109.486 33.5C109.23 33.5853 108.91 33.628 108.526 33.628C107.907 33.628 107.566 33.276 107.502 32.572C107.374 30.9293 107.31 27.868 107.31 23.388C107.31 18.8867 107.374 16.1773 107.502 15.26C107.054 15.2813 106.392 15.292 105.518 15.292C104.643 15.292 103.555 15.2813 102.254 15.26C101.912 15.26 101.646 15.1533 101.454 14.94C101.262 14.7267 101.166 14.4707 101.166 14.172C101.166 13.852 101.294 13.5427 101.55 13.244C101.827 12.9453 102.158 12.7747 102.542 12.732ZM119.91 32.124C119.91 32.508 119.74 32.86 119.398 33.18C119.057 33.4787 118.684 33.628 118.278 33.628C117.894 33.628 117.628 33.372 117.478 32.86C117.414 30.044 117.382 27.2387 117.382 24.444L117.286 16.38C117.286 14.7587 118.001 13.6493 119.43 13.052C120.582 12.5187 121.948 12.252 123.526 12.252C124.337 12.252 125.201 12.4547 126.118 12.86C127.057 13.244 127.889 13.82 128.614 14.588C129.361 15.3347 129.734 16.156 129.734 17.052C129.734 17.9267 129.329 18.876 128.518 19.9C127.708 20.9027 126.705 21.7987 125.51 22.588C124.316 23.356 123.153 23.932 122.022 24.316C124.006 25.7027 125.734 27.196 127.206 28.796C128.678 30.3747 129.414 31.6013 129.414 32.476C129.414 32.7533 129.276 33.02 128.998 33.276C128.721 33.5107 128.38 33.628 127.974 33.628C127.59 33.628 127.26 33.4573 126.982 33.116C126.513 31.9853 125.617 30.8013 124.294 29.564C122.993 28.3053 121.468 27.1107 119.718 25.98L119.91 32.124ZM119.782 22.524C121.212 22.46 122.812 21.8627 124.582 20.732C126.374 19.6013 127.27 18.588 127.27 17.692C127.27 16.7747 126.822 16.0707 125.926 15.58C125.03 15.0893 123.964 14.844 122.726 14.844C121.51 14.844 120.54 14.9933 119.814 15.292C119.793 16.38 119.782 18.7907 119.782 22.524ZM138.922 12.412C139.455 12.412 139.903 12.6467 140.266 13.116C140.628 13.5853 141.098 14.556 141.674 16.028C143.018 19.5053 144.33 24.956 145.61 32.38C145.631 32.4653 145.642 32.5933 145.642 32.764C145.642 32.9133 145.535 33.084 145.322 33.276C145.13 33.4467 144.842 33.532 144.458 33.532C144.095 33.532 143.786 33.4467 143.53 33.276C143.274 33.084 143.103 32.7853 143.018 32.38C142.932 31.9533 142.772 31.132 142.538 29.916C142.026 27.2067 141.684 25.7987 141.514 25.692C141.258 25.5427 140.404 25.3827 138.954 25.212C137.524 25.0413 136.575 24.956 136.106 24.956C135.636 24.956 135.359 24.9987 135.274 25.084C134.89 25.4253 134.367 28.0173 133.706 32.86C133.62 33.2653 133.215 33.468 132.49 33.468C131.764 33.468 131.402 33.1587 131.402 32.54C131.402 31.004 131.967 28.0707 133.098 23.74C134.228 19.4093 135.167 16.54 135.914 15.132C136.852 13.3187 137.855 12.412 138.922 12.412ZM138.794 15.964C138.474 15.964 137.919 16.9133 137.13 18.812C136.34 20.6893 135.946 21.852 135.946 22.3C135.946 22.4067 135.967 22.4813 136.01 22.524C136.18 22.6947 136.852 22.844 138.026 22.972C139.199 23.1 139.978 23.164 140.362 23.164C140.746 23.164 140.959 23.1427 141.002 23.1C141.044 23.036 141.066 22.8653 141.066 22.588C141.066 22.2893 140.778 21.116 140.202 19.068C139.626 16.9987 139.156 15.964 138.794 15.964ZM159.795 12.508C160.008 12.38 160.285 12.316 160.627 12.316C160.968 12.316 161.277 12.4653 161.555 12.764C161.832 13.0413 161.971 13.372 161.971 13.756C161.971 22.0973 162.003 27.1427 162.067 28.892C162.152 30.62 162.195 31.5053 162.195 31.548C162.195 32.0173 162.067 32.4653 161.811 32.892C161.555 33.2973 161.267 33.5 160.947 33.5C160.648 33.5 160.413 33.4893 160.243 33.468C160.093 33.4253 159.955 33.3827 159.827 33.34C159.699 33.2973 159.571 33.212 159.443 33.084L159.123 32.764C159.037 32.6787 158.92 32.5187 158.771 32.284C158.643 32.028 158.536 31.8253 158.451 31.676C158.365 31.5267 158.227 31.2707 158.035 30.908C157.864 30.524 157.469 29.756 156.851 28.604C156.253 27.452 155.709 26.4173 155.219 25.5C153.533 22.4067 151.965 19.964 150.515 18.172C150.515 25.1053 150.323 29.916 149.939 32.604C149.875 33.116 149.48 33.372 148.755 33.372C148.413 33.372 148.125 33.2867 147.891 33.116C147.677 32.9453 147.571 32.668 147.571 32.284C147.571 31.9 147.645 29.788 147.795 25.948C147.965 22.108 148.051 19.7187 148.051 18.78C148.051 17.82 148.051 17.212 148.051 16.956C148.051 15.42 148.168 14.556 148.403 14.364C148.637 14.172 148.883 14.076 149.139 14.076C150.312 14.076 152.104 15.996 154.515 19.836C154.984 20.5827 155.88 22.1507 157.203 24.54C158.525 26.908 159.315 28.3693 159.571 28.924L159.187 15.644C159.187 13.8093 159.389 12.764 159.795 12.508ZM171.802 12.316C173.188 12.316 174.362 12.5507 175.322 13.02C176.303 13.4893 176.794 14.0867 176.794 14.812C176.794 15.132 176.708 15.4093 176.538 15.644C176.388 15.8787 176.154 15.996 175.834 15.996C175.535 15.996 174.874 15.7613 173.85 15.292C172.826 14.8013 171.887 14.556 171.034 14.556C170.202 14.556 169.338 14.8227 168.442 15.356C167.546 15.8893 167.098 16.54 167.098 17.308C167.098 18.3533 167.642 19.1213 168.73 19.612C169.54 19.9747 170.703 20.3053 172.218 20.604C173.732 20.8813 174.97 21.468 175.93 22.364C176.89 23.2387 177.37 24.572 177.37 26.364C177.37 29.0947 176.548 31.1107 174.906 32.412C173.988 33.1373 172.687 33.5 171.002 33.5C169.338 33.5 167.674 33.0413 166.01 32.124C164.922 31.548 164.378 30.972 164.378 30.396C164.378 30.1827 164.463 29.948 164.634 29.692C164.826 29.436 165.082 29.2227 165.402 29.052C165.722 28.8813 166.01 28.86 166.266 28.988C166.543 29.0947 166.98 29.2973 167.578 29.596C168.175 29.8947 168.612 30.0973 168.89 30.204C169.786 30.5453 170.628 30.716 171.418 30.716C172.207 30.716 172.964 30.332 173.69 29.564C174.436 28.7747 174.81 27.8147 174.81 26.684C174.81 25.1907 174.063 24.1453 172.57 23.548C171.844 23.2493 171.023 23.0253 170.106 22.876C168.207 22.5347 166.778 21.9693 165.818 21.18C164.858 20.3693 164.378 19.1533 164.378 17.532C164.378 15.9107 165.071 14.6413 166.458 13.724C167.844 12.7853 169.626 12.316 171.802 12.316ZM181.145 13.148C181.487 12.9347 181.871 12.828 182.297 12.828C182.724 12.828 182.991 13.0733 183.097 13.564C183.119 16.0387 183.161 19.74 183.225 24.668C183.225 27.676 183.14 30.2253 182.969 32.316C182.927 32.636 182.724 32.924 182.361 33.18C182.02 33.4147 181.668 33.532 181.305 33.532C180.708 33.532 180.409 33.2227 180.409 32.604C180.623 30.4707 180.729 27.8253 180.729 24.668L180.537 13.916C180.623 13.6173 180.825 13.3613 181.145 13.148ZM186.917 12.732L199.877 12.54C200.495 12.732 200.805 13.0413 200.805 13.468C200.805 14.5347 200.367 15.068 199.493 15.068C197.893 15.068 196.197 15.1107 194.405 15.196C194.298 17.0307 194.245 18.4173 194.245 19.356C194.245 20.2733 194.245 20.86 194.245 21.116L194.373 32.348C194.373 33.0093 194.202 33.3933 193.861 33.5C193.605 33.5853 193.285 33.628 192.901 33.628C192.282 33.628 191.941 33.276 191.877 32.572C191.749 30.9293 191.685 27.868 191.685 23.388C191.685 18.8867 191.749 16.1773 191.877 15.26C191.429 15.2813 190.767 15.292 189.893 15.292C189.018 15.292 187.93 15.2813 186.629 15.26C186.287 15.26 186.021 15.1533 185.829 14.94C185.637 14.7267 185.541 14.4707 185.541 14.172C185.541 13.852 185.669 13.5427 185.925 13.244C186.202 12.9453 186.533 12.7747 186.917 12.732ZM206.173 25.756L206.205 24.124C206.205 23.5693 206.024 23.0253 205.661 22.492C205.32 21.9587 204.477 20.412 203.133 17.852C201.789 15.292 201.117 13.852 201.117 13.532C201.117 13.1907 201.256 12.892 201.533 12.636C201.811 12.3587 202.077 12.22 202.333 12.22C202.611 12.22 202.931 12.4653 203.293 12.956C203.677 13.4467 204.413 14.7373 205.501 16.828C206.611 18.9187 207.251 20.0707 207.421 20.284C209.469 16.6573 211.112 14.0973 212.349 12.604C212.648 12.3267 212.883 12.188 213.053 12.188C213.245 12.188 213.384 12.2093 213.469 12.252C213.981 12.4653 214.237 12.7533 214.237 13.116C214.237 13.4573 214.152 13.756 213.981 14.012C213.811 14.268 213.341 14.94 212.573 16.028C211.443 17.6067 210.461 19.2067 209.629 20.828C208.819 22.428 208.413 23.4093 208.413 23.772V29.628L208.509 32.188C208.509 32.6573 208.381 32.988 208.125 33.18C207.869 33.3507 207.549 33.436 207.165 33.436C206.803 33.436 206.557 33.2333 206.429 32.828C206.301 32.4227 206.227 31.8893 206.205 31.228C206.184 30.5667 206.173 29.596 206.173 28.316V25.756Z" fill="#FFA402"/>
</svg>
