<svg width="427" height="91" viewBox="0 0 427 91" fill="none" xmlns="http://www.w3.org/2000/svg">
<path d="M14.1679 60.2299C14.7192 60.1174 15.2198 59.9486 15.6923 59.7517C13.251 58.8461 10.731 57.018 8.67223 54.4248C4.43093 49.081 3.77843 42.5728 7.20971 39.884C10.4554 37.3471 16.1929 39.1359 20.3892 43.8497C19.0336 33.7471 13.7123 30.2708 8.03097 31.4408C2.14153 32.6558 -1.26163 40.0809 0.437139 48.0291C2.13028 55.9773 8.27847 61.4393 14.1679 60.2242V60.2299Z" fill="#6F4C48"/>
<path d="M8.32925 26.4176H12.0362C12.8406 26.4176 13.4537 25.9732 13.3356 25.4782C13.3356 25.4782 12.7112 20.0838 11.4512 17.4119C10.9899 16.4275 9.59489 16.4275 9.13364 17.4119C7.47987 20.9444 7.01861 25.4782 7.01861 25.4782C6.90611 25.9732 7.52487 26.4232 8.32363 26.4232L8.32925 26.4176Z" fill="#6F4C48"/>
<path d="M26.0425 9.69423L29.7325 10.0149C30.5313 10.0824 31.1838 9.69423 31.1106 9.18798C31.1106 9.18798 30.9644 3.75979 29.9463 0.992263C29.5694 -0.0258735 28.1856 -0.149625 27.6344 0.78976C25.6712 4.1648 24.8162 8.63672 24.8162 8.63672C24.6587 9.12048 25.2381 9.62111 26.0368 9.68861L26.0425 9.69423Z" fill="#6F4C48"/>
<path d="M21.8237 38.2078C21.8237 32.144 24.7768 27.2446 28.9281 26.8846C33.2707 26.5077 37.3601 31.2271 38.412 37.6116C39.6101 34.9734 40.1501 31.7502 39.7564 27.6665C38.862 18.4245 33.6138 11.3425 28.0337 11.8488C22.4537 12.355 18.6455 20.2639 19.5399 29.5058C19.8324 32.5153 20.6705 35.564 21.8293 38.2022L21.8237 38.2078ZM19.8043 26.7552V26.4177V27.0983V26.7608V26.7552Z" fill="#6F4C48"/>
<path d="M39.8633 49.7503V49.9078C39.9589 49.9078 40.0489 49.9078 40.1445 49.9078V49.7446C40.0489 49.7446 39.9589 49.7446 39.8633 49.7446V49.7503Z" fill="#6F4C48"/>
<path d="M71.9711 31.2833C66.2897 30.1133 60.9684 33.5896 59.6128 43.6922C63.8147 38.9728 69.5466 37.184 72.7923 39.7265C76.2236 42.4153 75.5711 48.9235 71.3298 54.2673C69.2766 56.8549 66.7566 58.6886 64.3097 59.5943C64.7822 59.7911 65.2829 59.9599 65.8341 60.0724C71.7235 61.2874 77.8717 55.8255 79.5649 47.8773C81.258 39.9291 77.8605 32.504 71.9711 31.289V31.2833Z" fill="#6F4C48"/>
<path d="M67.9772 26.2601H71.6841C72.4885 26.2601 73.1017 25.8158 72.9892 25.3151C72.9892 25.3151 72.5335 20.7813 70.8741 17.2488C70.4129 16.2644 69.0179 16.2644 68.5566 17.2488C67.2966 19.9207 66.6722 25.3151 66.6722 25.3151C66.5541 25.8101 67.1729 26.2601 67.9716 26.2601H67.9772Z" fill="#6F4C48"/>
<path d="M50.2695 9.85738L53.9595 9.53675C54.7583 9.46925 55.3377 8.96862 55.1802 8.48487C55.1802 8.48487 54.3252 4.00732 52.362 0.637905C51.8164 -0.30148 50.427 -0.177729 50.0501 0.840407C49.032 3.60794 48.8857 9.03612 48.8857 9.03612C48.8126 9.54238 49.4651 9.93051 50.2639 9.86301L50.2695 9.85738Z" fill="#6F4C48"/>
<path d="M51.0795 26.7271C55.2308 27.0871 58.184 31.9865 58.184 38.0503C59.3427 35.4066 60.1809 32.3578 60.4734 29.354C61.3677 20.112 57.5596 12.2032 51.9795 11.6969C46.3938 11.1907 41.1456 18.2726 40.2569 27.5146C39.8631 31.5928 40.4031 34.8216 41.6013 37.4597C42.6532 31.0753 46.7426 26.3502 51.0851 26.7327L51.0795 26.7271ZM60.2033 26.6033V26.2658V26.9465V26.609V26.6033Z" fill="#6F4C48"/>
<path d="M69.7942 66.3388C69.3217 65.6188 68.7817 64.9382 68.1854 64.2969C62.3016 57.9631 59.5172 59.4481 57.0703 57.3612C55.8609 56.3318 56.5584 56.6862 54.7247 51.2918C53.234 46.9098 47.7777 41.3804 40.1445 41.0823C40.1445 41.1723 40.1445 41.2342 40.1445 41.2342C40.0489 41.2342 39.9533 41.251 39.8576 41.251C35.2338 41.431 31.4032 43.5292 28.7763 46.1336C27.0719 47.8211 25.8681 49.7224 25.2831 51.4493C23.4493 56.8437 24.1468 56.4893 22.9374 57.5187C20.4962 59.6 17.7118 58.1206 11.8223 64.4544C11.2261 65.0957 10.6804 65.7707 10.2136 66.4963C5.91601 73.0889 8.68354 78.9108 14.033 81.8415V81.009C13.6955 86.4371 18.0943 90.8416 23.5281 90.8416H57.436C62.8641 90.8416 67.2686 86.4371 67.2686 81.009V81.0708C71.6561 77.9827 73.7993 72.4926 69.7886 66.3388H69.7942ZM63.8823 82.8146V81.1215C63.8823 84.9915 60.7435 88.1303 56.8734 88.1303H24.7768C20.9068 88.1303 17.768 84.9915 17.768 81.1215V83.4615V74.6189C17.768 74.6189 17.7568 74.5908 17.7511 74.5739C13.9486 66.2207 20.0687 62.0694 24.0512 59.4368C24.2762 59.285 24.5012 59.1275 24.7206 58.9643C25.3843 58.4637 26.0031 57.9012 26.56 57.2824C27.37 56.3824 27.2856 56.2137 28.315 54.7118C28.8156 53.9805 29.2375 53.1987 29.5806 52.3886C32.7813 44.8342 36.5782 44.5473 38.367 44.4742C38.8676 44.4517 39.3514 44.5023 39.8689 44.4742V44.3167C39.9645 44.3167 40.0545 44.3111 40.1501 44.3167C40.6676 44.3392 41.1514 44.2942 41.652 44.3167C43.4408 44.3898 47.2321 44.6767 50.4384 52.2311C50.7815 53.0468 51.2034 53.8287 51.704 54.5543C52.7334 56.0562 52.649 56.2306 53.459 57.1249C54.0778 57.8112 54.7753 58.4243 55.5234 58.9643C55.6697 59.0712 55.8159 59.1781 55.9678 59.2793C58.4372 60.9106 61.7279 63.1325 62.9654 66.5694C63.5504 67.5932 63.8935 68.7745 63.8935 70.0401V82.809L63.8823 82.8146Z" fill="#6F4C48"/>
<path d="M38.9915 69.4775H40.9546C43.6153 69.4775 45.7697 71.6376 45.7697 74.2926V86.2009C45.7697 86.3246 45.6684 86.4315 45.539 86.4315H34.4689C34.3452 86.4315 34.2383 86.3302 34.2383 86.2009V74.2195C34.2383 71.5982 36.3646 69.4719 38.9858 69.4719L38.9915 69.4775Z" fill="#6F4C48"/>
<path d="M99.648 59.8928C99.3493 55.4981 99.2 49.5674 99.2 42.1008C99.2 34.5914 99.3067 29.7274 99.52 27.5088C99.7333 26.1434 100.672 25.2474 102.336 24.8208C104 24.3514 106.197 24.1168 108.928 24.1168C112.939 24.1168 116.309 24.9914 119.04 26.7408C121.813 28.4474 123.2 30.9861 123.2 34.3568C123.2 37.1301 122.816 39.4554 122.048 41.3328C121.28 43.1674 120.32 44.5328 119.168 45.4288C117.291 46.8794 114.517 47.6048 110.848 47.6048C109.269 47.6048 107.2 47.3914 104.64 46.9648C104.853 55.4981 104.939 60.8741 104.896 63.0928C104.853 65.3114 104.107 66.4208 102.656 66.4208C101.717 66.4208 101.12 66.2501 100.864 65.9088C100.608 65.5674 100.437 65.3328 100.352 65.2048C100.267 65.0341 100.181 64.7994 100.096 64.5008C100.011 64.2021 99.9467 63.9674 99.904 63.7968C99.8613 63.5834 99.8187 63.2848 99.776 62.9008C99.776 62.5168 99.7547 62.2181 99.712 62.0048C99.6693 61.3648 99.648 60.6608 99.648 59.8928ZM117.888 34.5488C117.888 32.7994 116.949 31.4341 115.072 30.4528C113.195 29.4288 111.189 28.9168 109.056 28.9168C106.923 28.9168 105.429 29.1088 104.576 29.4928C104.405 32.0101 104.32 34.3354 104.32 36.4688C104.32 38.5594 104.405 40.4581 104.576 42.1648C105.728 42.2928 106.517 42.3994 106.944 42.4848C108.053 42.6128 108.992 42.6768 109.76 42.6768C110.571 42.6768 111.104 42.6768 111.36 42.6768C111.659 42.6341 112.192 42.5701 112.96 42.4848C113.771 42.3568 114.347 42.1648 114.688 41.9088C115.029 41.6528 115.456 41.3114 115.968 40.8848C116.48 40.4581 116.843 39.9674 117.056 39.4128C117.611 37.8768 117.888 36.2554 117.888 34.5488ZM130.333 44.4048C129.735 44.0208 129.437 43.4661 129.437 42.7408C129.437 42.0154 129.671 41.3541 130.141 40.7568C129.97 36.4901 129.885 31.9888 129.885 27.2528C130.141 26.2288 130.525 25.4821 131.036 25.0128C131.591 24.5434 132.381 24.2448 133.405 24.1168C139.037 24.3728 145.138 24.5008 151.709 24.5008C153.33 24.8421 154.141 25.5461 154.141 26.6128C154.141 28.4048 152.391 29.4501 148.893 29.7488C147.954 29.7914 146.93 29.8128 145.821 29.8128H141.661C140.85 29.8128 138.61 29.6421 134.941 29.3008C134.941 34.6341 135.026 38.3034 135.197 40.3088C137.458 40.3514 141.81 40.3728 148.253 40.3728C149.789 40.6714 150.557 41.3754 150.557 42.4848C150.557 43.5514 149.938 44.3834 148.701 44.9808C148.573 45.0661 148.338 45.1514 147.997 45.2368L136.925 45.0448C136.242 45.0448 135.687 45.0874 135.26 45.1728L135.517 56.1808C135.517 58.6554 135.453 60.4261 135.325 61.4928L150.173 61.3008C151.538 61.5141 152.221 62.0901 152.221 63.0288C152.221 63.6688 151.922 64.3088 151.325 64.9488C150.77 65.5888 150.109 65.9941 149.341 66.1648L132.957 66.4208C131.975 66.4208 131.293 66.2501 130.909 65.9088C130.525 65.5248 130.333 64.9061 130.333 64.0528C130.503 62.8581 130.589 60.9381 130.589 58.2928V53.8128L130.333 44.4048ZM157.941 24.8848L183.861 24.5008C185.098 24.8848 185.717 25.5034 185.717 26.3568C185.717 28.4901 184.842 29.5568 183.093 29.5568C179.893 29.5568 176.501 29.6421 172.917 29.8128C172.704 33.4821 172.597 36.2554 172.597 38.1328C172.597 39.9674 172.597 41.1408 172.597 41.6528L172.853 64.1168C172.853 65.4394 172.512 66.2074 171.829 66.4208C171.317 66.5914 170.677 66.6768 169.909 66.6768C168.672 66.6768 167.989 65.9728 167.861 64.5648C167.605 61.2794 167.477 55.1568 167.477 46.1968C167.477 37.1941 167.605 31.7754 167.861 29.9408C166.965 29.9834 165.642 30.0048 163.893 30.0048C162.144 30.0048 159.968 29.9834 157.365 29.9408C156.682 29.9408 156.149 29.7274 155.765 29.3008C155.381 28.8741 155.189 28.3621 155.189 27.7648C155.189 27.1248 155.445 26.5061 155.957 25.9088C156.512 25.3114 157.173 24.9701 157.941 24.8848ZM202.629 24.8848L228.549 24.5008C229.786 24.8848 230.405 25.5034 230.405 26.3568C230.405 28.4901 229.53 29.5568 227.781 29.5568C224.581 29.5568 221.189 29.6421 217.605 29.8128C217.391 33.4821 217.285 36.2554 217.285 38.1328C217.285 39.9674 217.285 41.1408 217.285 41.6528L217.541 64.1168C217.541 65.4394 217.199 66.2074 216.517 66.4208C216.005 66.5914 215.365 66.6768 214.597 66.6768C213.359 66.6768 212.677 65.9728 212.549 64.5648C212.293 61.2794 212.165 55.1568 212.165 46.1968C212.165 37.1941 212.293 31.7754 212.549 29.9408C211.653 29.9834 210.33 30.0048 208.581 30.0048C206.831 30.0048 204.655 29.9834 202.053 29.9408C201.37 29.9408 200.837 29.7274 200.453 29.3008C200.069 28.8741 199.877 28.3621 199.877 27.7648C199.877 27.1248 200.133 26.5061 200.645 25.9088C201.199 25.3114 201.861 24.9701 202.629 24.8848ZM237.366 63.6688C237.366 64.4368 237.025 65.1408 236.342 65.7808C235.659 66.3781 234.913 66.6768 234.102 66.6768C233.334 66.6768 232.801 66.1648 232.502 65.1408C232.374 59.5088 232.31 53.8981 232.31 48.3088L232.118 32.1808C232.118 28.9381 233.547 26.7194 236.406 25.5248C238.71 24.4581 241.441 23.9248 244.598 23.9248C246.219 23.9248 247.947 24.3301 249.782 25.1408C251.659 25.9088 253.323 27.0608 254.774 28.5968C256.267 30.0901 257.014 31.7328 257.014 33.5248C257.014 35.2741 256.203 37.1728 254.582 39.2208C252.961 41.2261 250.955 43.0181 248.566 44.5968C246.177 46.1328 243.851 47.2848 241.59 48.0528C245.558 50.8261 249.014 53.8128 251.958 57.0128C254.902 60.1701 256.374 62.6234 256.374 64.3728C256.374 64.9274 256.097 65.4608 255.542 65.9728C254.987 66.4421 254.305 66.6768 253.494 66.6768C252.726 66.6768 252.065 66.3354 251.51 65.6528C250.571 63.3914 248.779 61.0234 246.134 58.5488C243.531 56.0314 240.481 53.6421 236.982 51.3808L237.366 63.6688ZM237.11 44.4688C239.969 44.3408 243.169 43.1461 246.71 40.8848C250.294 38.6234 252.086 36.5968 252.086 34.8048C252.086 32.9701 251.19 31.5621 249.398 30.5808C247.606 29.5994 245.473 29.1088 242.998 29.1088C240.566 29.1088 238.625 29.4074 237.174 30.0048C237.131 32.1808 237.11 37.0021 237.11 44.4688ZM275.389 24.2448C276.455 24.2448 277.351 24.7141 278.077 25.6528C278.802 26.5914 279.741 28.5328 280.893 31.4768C283.581 38.4314 286.205 49.3328 288.765 64.1808C288.807 64.3514 288.829 64.6074 288.829 64.9488C288.829 65.2474 288.615 65.5888 288.189 65.9728C287.805 66.3141 287.229 66.4848 286.461 66.4848C285.735 66.4848 285.117 66.3141 284.605 65.9728C284.093 65.5888 283.751 64.9914 283.581 64.1808C283.41 63.3274 283.09 61.6848 282.621 59.2528C281.597 53.8341 280.914 51.0181 280.573 50.8048C280.061 50.5061 278.354 50.1861 275.453 49.8448C272.594 49.5034 270.695 49.3328 269.757 49.3328C268.818 49.3328 268.263 49.4181 268.093 49.5888C267.325 50.2714 266.279 55.4554 264.957 65.1408C264.786 65.9514 263.975 66.3568 262.525 66.3568C261.074 66.3568 260.349 65.7381 260.349 64.5008C260.349 61.4288 261.479 55.5621 263.741 46.9008C266.002 38.2394 267.879 32.5008 269.373 29.6848C271.25 26.0581 273.255 24.2448 275.389 24.2448ZM275.133 31.3488C274.493 31.3488 273.383 33.2474 271.805 37.0448C270.226 40.7994 269.437 43.1248 269.437 44.0208C269.437 44.2341 269.479 44.3834 269.565 44.4688C269.906 44.8101 271.25 45.1088 273.597 45.3648C275.943 45.6208 277.501 45.7488 278.269 45.7488C279.037 45.7488 279.463 45.7061 279.549 45.6208C279.634 45.4928 279.677 45.1514 279.677 44.5968C279.677 43.9994 279.101 41.6528 277.949 37.5568C276.797 33.4181 275.858 31.3488 275.133 31.3488ZM317.135 24.4368C317.561 24.1808 318.116 24.0528 318.799 24.0528C319.481 24.0528 320.1 24.3514 320.655 24.9488C321.209 25.5034 321.487 26.1648 321.487 26.9328C321.487 43.6154 321.551 53.7061 321.679 57.2048C321.849 60.6608 321.935 62.4314 321.935 62.5168C321.935 63.4554 321.679 64.3514 321.167 65.2048C320.655 66.0154 320.079 66.4208 319.439 66.4208C318.841 66.4208 318.372 66.3994 318.031 66.3568C317.732 66.2714 317.455 66.1861 317.199 66.1008C316.943 66.0154 316.687 65.8448 316.431 65.5888L315.791 64.9488C315.62 64.7781 315.385 64.4581 315.087 63.9888C314.831 63.4768 314.617 63.0714 314.447 62.7728C314.276 62.4741 313.999 61.9621 313.615 61.2368C313.273 60.4688 312.484 58.9328 311.247 56.6288C310.052 54.3248 308.964 52.2554 307.983 50.4208C304.612 44.2341 301.476 39.3488 298.575 35.7648C298.575 49.6314 298.191 59.2528 297.423 64.6288C297.295 65.6528 296.505 66.1648 295.055 66.1648C294.372 66.1648 293.796 65.9941 293.327 65.6528C292.9 65.3114 292.687 64.7568 292.687 63.9888C292.687 63.2208 292.836 58.9968 293.135 51.3168C293.476 43.6368 293.647 38.8581 293.647 36.9808C293.647 35.0608 293.647 33.8448 293.647 33.3328C293.647 30.2608 293.881 28.5328 294.351 28.1488C294.82 27.7648 295.311 27.5728 295.823 27.5728C298.169 27.5728 301.753 31.4128 306.575 39.0928C307.513 40.5861 309.305 43.7221 311.951 48.5008C314.596 53.2368 316.175 56.1594 316.687 57.2688L315.919 30.7088C315.919 27.0394 316.324 24.9488 317.135 24.4368ZM341.149 24.0528C343.922 24.0528 346.269 24.5221 348.189 25.4608C350.152 26.3994 351.133 27.5941 351.133 29.0448C351.133 29.6848 350.962 30.2394 350.621 30.7088C350.322 31.1781 349.853 31.4128 349.213 31.4128C348.616 31.4128 347.293 30.9434 345.245 30.0048C343.197 29.0234 341.32 28.5328 339.613 28.5328C337.949 28.5328 336.221 29.0661 334.429 30.1328C332.637 31.1994 331.741 32.5008 331.741 34.0368C331.741 36.1274 332.829 37.6634 335.005 38.6448C336.626 39.3701 338.952 40.0314 341.981 40.6288C345.01 41.1834 347.485 42.3568 349.405 44.1488C351.325 45.8981 352.285 48.5648 352.285 52.1488C352.285 57.6101 350.642 61.6421 347.357 64.2448C345.522 65.6954 342.92 66.4208 339.549 66.4208C336.221 66.4208 332.893 65.5034 329.565 63.6688C327.389 62.5168 326.301 61.3648 326.301 60.2128C326.301 59.7861 326.472 59.3168 326.813 58.8048C327.197 58.2928 327.709 57.8661 328.349 57.5248C328.989 57.1834 329.565 57.1408 330.077 57.3968C330.632 57.6101 331.506 58.0154 332.701 58.6128C333.896 59.2101 334.77 59.6154 335.325 59.8288C337.117 60.5114 338.802 60.8528 340.381 60.8528C341.96 60.8528 343.474 60.0848 344.925 58.5488C346.418 56.9701 347.165 55.0501 347.165 52.7888C347.165 49.8021 345.672 47.7114 342.685 46.5168C341.234 45.9194 339.592 45.4714 337.757 45.1728C333.96 44.4901 331.101 43.3594 329.181 41.7808C327.261 40.1594 326.301 37.7274 326.301 34.4848C326.301 31.2421 327.688 28.7034 330.461 26.8688C333.234 24.9914 336.797 24.0528 341.149 24.0528ZM359.836 25.7168C360.519 25.2901 361.287 25.0768 362.14 25.0768C362.993 25.0768 363.527 25.5674 363.74 26.5488C363.783 31.4981 363.868 38.9008 363.996 48.7568C363.996 54.7728 363.825 59.8714 363.484 64.0528C363.399 64.6928 362.993 65.2688 362.268 65.7808C361.585 66.2501 360.881 66.4848 360.156 66.4848C358.961 66.4848 358.364 65.8661 358.364 64.6288C358.791 60.3621 359.004 55.0714 359.004 48.7568L358.62 27.2528C358.791 26.6554 359.196 26.1434 359.836 25.7168ZM371.379 24.8848L397.299 24.5008C398.536 24.8848 399.155 25.5034 399.155 26.3568C399.155 28.4901 398.28 29.5568 396.531 29.5568C393.331 29.5568 389.939 29.6421 386.355 29.8128C386.141 33.4821 386.035 36.2554 386.035 38.1328C386.035 39.9674 386.035 41.1408 386.035 41.6528L386.291 64.1168C386.291 65.4394 385.949 66.2074 385.267 66.4208C384.755 66.5914 384.115 66.6768 383.347 66.6768C382.109 66.6768 381.427 65.9728 381.299 64.5648C381.043 61.2794 380.915 55.1568 380.915 46.1968C380.915 37.1941 381.043 31.7754 381.299 29.9408C380.403 29.9834 379.08 30.0048 377.331 30.0048C375.581 30.0048 373.405 29.9834 370.803 29.9408C370.12 29.9408 369.587 29.7274 369.203 29.3008C368.819 28.8741 368.627 28.3621 368.627 27.7648C368.627 27.1248 368.883 26.5061 369.395 25.9088C369.949 25.3114 370.611 24.9701 371.379 24.8848ZM409.892 50.9328L409.956 47.6688C409.956 46.5594 409.593 45.4714 408.868 44.4048C408.185 43.3381 406.5 40.2448 403.812 35.1248C401.124 30.0048 399.78 27.1248 399.78 26.4848C399.78 25.8021 400.057 25.2048 400.612 24.6928C401.167 24.1381 401.7 23.8608 402.212 23.8608C402.767 23.8608 403.407 24.3514 404.132 25.3328C404.9 26.3141 406.372 28.8954 408.548 33.0768C410.767 37.2581 412.047 39.5621 412.388 39.9888C416.484 32.7354 419.769 27.6154 422.244 24.6288C422.841 24.0741 423.311 23.7968 423.652 23.7968C424.036 23.7968 424.313 23.8394 424.484 23.9248C425.508 24.3514 426.02 24.9274 426.02 25.6528C426.02 26.3354 425.849 26.9328 425.508 27.4448C425.167 27.9568 424.228 29.3008 422.692 31.4768C420.431 34.6341 418.468 37.8341 416.804 41.0768C415.183 44.2768 414.372 46.2394 414.372 46.9648V58.6768L414.564 63.7968C414.564 64.7354 414.308 65.3968 413.796 65.7808C413.284 66.1221 412.644 66.2928 411.876 66.2928C411.151 66.2928 410.66 65.8874 410.404 65.0768C410.148 64.2661 409.999 63.1994 409.956 61.8768C409.913 60.5541 409.892 58.6128 409.892 56.0528V50.9328Z" fill="#6F4C48"/>
</svg>
