<svg width="215" height="46" viewBox="0 0 215 46" fill="none" xmlns="http://www.w3.org/2000/svg">
<path d="M7.1488 30.4989C7.42696 30.4419 7.67957 30.3564 7.91799 30.2567C6.68615 29.7981 5.41459 28.8724 4.37576 27.5593C2.23566 24.8533 1.90642 21.5577 3.63779 20.1962C5.27551 18.9116 8.1706 19.8174 10.288 22.2043C9.60395 17.0886 6.9189 15.3283 4.05219 15.9208C1.08046 16.536 -0.636722 20.2959 0.220452 24.3207C1.07479 28.3455 4.17708 31.1113 7.1488 30.496V30.4989Z" fill="white"/>
<path d="M4.20244 13.3773H6.07289C6.47877 13.3773 6.78815 13.1522 6.72854 12.9016C6.72854 12.9016 6.41349 10.17 5.77771 8.81697C5.54496 8.3185 4.84106 8.3185 4.60832 8.81697C3.77385 10.6058 3.54111 12.9016 3.54111 12.9016C3.48434 13.1522 3.79656 13.3801 4.1996 13.3801L4.20244 13.3773Z" fill="white"/>
<path d="M13.1401 4.90894L15.0021 5.07129C15.4051 5.10547 15.7344 4.90894 15.6975 4.65258C15.6975 4.65258 15.6237 1.90388 15.1099 0.502466C14.9198 -0.0130934 14.2215 -0.0757581 13.9434 0.399924C12.9528 2.10896 12.5214 4.37344 12.5214 4.37344C12.4419 4.6184 12.7343 4.87191 13.1373 4.90609L13.1401 4.90894Z" fill="white"/>
<path d="M11.012 19.3476C11.012 16.277 12.5021 13.7961 14.5968 13.6138C16.788 13.4229 18.8515 15.8127 19.3822 19.0456C19.9868 17.7098 20.2593 16.0776 20.0606 14.0097C19.6093 9.32977 16.9611 5.74364 14.1455 5.99999C11.3299 6.25635 9.40836 10.2612 9.85965 14.9411C10.0072 16.465 10.4302 18.0088 11.0148 19.3447L11.012 19.3476ZM9.99305 13.5482V13.3773V13.722V13.5511V13.5482Z" fill="white"/>
<path d="M20.1141 25.1923V25.2717C20.1622 25.2717 20.2074 25.2717 20.2554 25.2717V25.1895C20.2074 25.1895 20.1622 25.1895 20.1141 25.1895V25.1923Z" fill="white"/>
<path d="M36.3153 15.8409C33.4486 15.2485 30.7635 17.0088 30.0795 22.1245C32.1997 19.7347 35.0919 18.8289 36.7297 20.1164C38.461 21.4779 38.1318 24.7735 35.9917 27.4795C34.9557 28.7897 33.6841 29.7183 32.4495 30.1769C32.6879 30.2766 32.9405 30.3621 33.2187 30.419C36.1904 31.0343 39.2927 28.2685 40.147 24.2437C41.0013 20.2189 39.287 16.459 36.3153 15.8438V15.8409Z" fill="white"/>
<path d="M34.3003 13.2976H36.1708C36.5767 13.2976 36.886 13.0726 36.8293 12.819C36.8293 12.819 36.5994 10.5232 35.7621 8.73445C35.5293 8.23598 34.8254 8.23598 34.5927 8.73445C33.9569 10.0874 33.6418 12.819 33.6418 12.819C33.5822 13.0697 33.8945 13.2976 34.2975 13.2976H34.3003Z" fill="white"/>
<path d="M25.3652 4.99154L27.2272 4.82918C27.6302 4.795 27.9226 4.5415 27.8431 4.29653C27.8431 4.29653 27.4117 2.02921 26.4211 0.32302C26.1458 -0.152662 25.4447 -0.0899977 25.2545 0.425562C24.7408 1.82697 24.667 4.57568 24.667 4.57568C24.6301 4.83203 24.9594 5.02857 25.3624 4.99439L25.3652 4.99154Z" fill="white"/>
<path d="M25.774 13.534C27.8687 13.7163 29.3588 16.1973 29.3588 19.2678C29.9435 17.9291 30.3665 16.3852 30.514 14.8642C30.9653 10.1843 29.0438 6.17944 26.2282 5.92309C23.4097 5.66673 20.7616 9.25286 20.3131 13.9328C20.1144 15.9979 20.3869 17.6328 20.9915 18.9687C21.5222 15.7358 23.5857 13.3432 25.7769 13.5369L25.774 13.534ZM30.3778 13.4713V13.3004V13.6451V13.4742V13.4713Z" fill="white"/>
<path d="M35.2169 33.5923C34.9784 33.2277 34.706 32.883 34.4051 32.5583C31.4362 29.351 30.0312 30.103 28.7966 29.0462C28.1863 28.525 28.5383 28.7044 27.613 25.9728C26.8608 23.7539 24.1076 20.9539 20.256 20.803C20.256 20.8486 20.256 20.8799 20.256 20.8799C20.2078 20.8799 20.1595 20.8884 20.1113 20.8884C17.7782 20.9796 15.8453 22.042 14.5198 23.3608C13.6598 24.2154 13.0524 25.1781 12.7572 26.0526C11.8319 28.7842 12.1838 28.6047 11.5736 29.126C10.3418 30.1799 8.9368 29.4308 5.96508 32.6381C5.66422 32.9628 5.3889 33.3046 5.15332 33.672C2.98484 37.0104 4.38129 39.9584 7.08054 41.4425V41.0209C6.91024 43.7696 9.12981 45.9999 11.8716 45.9999H28.9811C31.72 45.9999 33.9424 43.7696 33.9424 41.0209V41.0522C36.1563 39.4885 37.2377 36.7084 35.214 33.5923H35.2169ZM32.2338 41.9352V41.0779C32.2338 43.0376 30.65 44.627 28.6972 44.627H12.5017C10.549 44.627 8.96519 43.0376 8.96519 41.0779V42.2628V37.7851C8.96519 37.7851 8.95951 37.7709 8.95667 37.7623C7.03796 33.5325 10.1261 31.4303 12.1356 30.0973C12.2491 30.0204 12.3627 29.9406 12.4734 29.858C12.8083 29.6045 13.1205 29.3197 13.4015 29.0064C13.8102 28.5506 13.7676 28.4652 14.287 27.7046C14.5397 27.3344 14.7525 26.9384 14.9257 26.5283C16.5407 22.7029 18.4565 22.5576 19.3591 22.5206C19.6117 22.5092 19.8558 22.5348 20.117 22.5206V22.4408C20.1652 22.4408 20.2106 22.438 20.2589 22.4408C20.52 22.4522 20.7641 22.4294 21.0167 22.4408C21.9193 22.4778 23.8323 22.6231 25.4502 26.4485C25.6233 26.8615 25.8362 27.2574 26.0888 27.6249C26.6082 28.3854 26.5656 28.4737 26.9744 28.9266C27.2866 29.2741 27.6385 29.5846 28.016 29.858C28.0898 29.9122 28.1636 29.9663 28.2402 30.0175C29.4863 30.8436 31.1467 31.9687 31.7711 33.7091C32.0663 34.2275 32.2394 34.8256 32.2394 35.4665V41.9324L32.2338 41.9352Z" fill="white"/>
<path d="M19.6746 35.1818H20.6652C22.0077 35.1818 23.0948 36.2756 23.0948 37.62V43.6501C23.0948 43.7128 23.0437 43.7669 22.9784 43.7669H17.3926C17.3302 43.7669 17.2762 43.7156 17.2762 43.6501V37.583C17.2762 36.2556 18.3491 35.179 19.6718 35.179L19.6746 35.1818Z" fill="white"/>
<path d="M50.2786 30.236C50.1293 28.0387 50.0546 25.0733 50.0546 21.34C50.0546 17.5853 50.1079 15.1533 50.2146 14.044C50.3213 13.3613 50.7906 12.9133 51.6226 12.7C52.4546 12.4653 53.5533 12.348 54.9186 12.348C56.9239 12.348 58.6093 12.7853 59.9746 13.66C61.3613 14.5133 62.0546 15.7827 62.0546 17.468C62.0546 18.8547 61.8626 20.0173 61.4786 20.956C61.0946 21.8733 60.6146 22.556 60.0386 23.004C59.0999 23.7293 57.7133 24.092 55.8786 24.092C55.0893 24.092 54.0546 23.9853 52.7746 23.772C52.8813 28.0387 52.9239 30.7267 52.9026 31.836C52.8813 32.9453 52.5079 33.5 51.7826 33.5C51.3133 33.5 51.0146 33.4147 50.8866 33.244C50.7586 33.0733 50.6733 32.956 50.6306 32.892C50.5879 32.8067 50.5453 32.6893 50.5026 32.54C50.4599 32.3907 50.4279 32.2733 50.4066 32.188C50.3853 32.0813 50.3639 31.932 50.3426 31.74C50.3426 31.548 50.3319 31.3987 50.3106 31.292C50.2893 30.972 50.2786 30.62 50.2786 30.236ZM59.3986 17.564C59.3986 16.6893 58.9293 16.0067 57.9906 15.516C57.0519 15.004 56.0493 14.748 54.9826 14.748C53.9159 14.748 53.1693 14.844 52.7426 15.036C52.6573 16.2947 52.6146 17.4573 52.6146 18.524C52.6146 19.5693 52.6573 20.5187 52.7426 21.372C53.3186 21.436 53.7133 21.4893 53.9266 21.532C54.4813 21.596 54.9506 21.628 55.3346 21.628C55.7399 21.628 56.0066 21.628 56.1346 21.628C56.2839 21.6067 56.5506 21.5747 56.9346 21.532C57.3399 21.468 57.6279 21.372 57.7986 21.244C57.9693 21.116 58.1826 20.9453 58.4386 20.732C58.6946 20.5187 58.8759 20.2733 58.9826 19.996C59.2599 19.228 59.3986 18.4173 59.3986 17.564ZM65.6208 22.492C65.3222 22.3 65.1728 22.0227 65.1728 21.66C65.1728 21.2973 65.2902 20.9667 65.5248 20.668C65.4395 18.5347 65.3968 16.284 65.3968 13.916C65.5248 13.404 65.7168 13.0307 65.9728 12.796C66.2502 12.5613 66.6448 12.412 67.1568 12.348C69.9728 12.476 73.0235 12.54 76.3088 12.54C77.1195 12.7107 77.5248 13.0627 77.5248 13.596C77.5248 14.492 76.6502 15.0147 74.9008 15.164C74.4315 15.1853 73.9195 15.196 73.3648 15.196H71.2848C70.8795 15.196 69.7595 15.1107 67.9248 14.94C67.9248 17.6067 67.9675 19.4413 68.0528 20.444C69.1835 20.4653 71.3595 20.476 74.5808 20.476C75.3488 20.6253 75.7328 20.9773 75.7328 21.532C75.7328 22.0653 75.4235 22.4813 74.8048 22.78C74.7408 22.8227 74.6235 22.8653 74.4528 22.908L68.9168 22.812C68.5755 22.812 68.2982 22.8333 68.0848 22.876L68.2128 28.38C68.2128 29.6173 68.1808 30.5027 68.1168 31.036L75.5408 30.94C76.2235 31.0467 76.5648 31.3347 76.5648 31.804C76.5648 32.124 76.4155 32.444 76.1168 32.764C75.8395 33.084 75.5088 33.2867 75.1248 33.372L66.9328 33.5C66.4422 33.5 66.1008 33.4147 65.9088 33.244C65.7168 33.052 65.6208 32.7427 65.6208 32.316C65.7062 31.7187 65.7488 30.7587 65.7488 29.436V27.196L65.6208 22.492ZM79.4251 12.732L92.3851 12.54C93.0038 12.732 93.3131 13.0413 93.3131 13.468C93.3131 14.5347 92.8758 15.068 92.0011 15.068C90.4011 15.068 88.7051 15.1107 86.9131 15.196C86.8064 17.0307 86.7531 18.4173 86.7531 19.356C86.7531 20.2733 86.7531 20.86 86.7531 21.116L86.8811 32.348C86.8811 33.0093 86.7104 33.3933 86.3691 33.5C86.1131 33.5853 85.7931 33.628 85.4091 33.628C84.7904 33.628 84.4491 33.276 84.3851 32.572C84.2571 30.9293 84.1931 27.868 84.1931 23.388C84.1931 18.8867 84.2571 16.1773 84.3851 15.26C83.9371 15.2813 83.2758 15.292 82.4011 15.292C81.5264 15.292 80.4384 15.2813 79.1371 15.26C78.7958 15.26 78.5291 15.1533 78.3371 14.94C78.1451 14.7267 78.0491 14.4707 78.0491 14.172C78.0491 13.852 78.1771 13.5427 78.4331 13.244C78.7104 12.9453 79.0411 12.7747 79.4251 12.732ZM101.769 12.732L114.729 12.54C115.348 12.732 115.657 13.0413 115.657 13.468C115.657 14.5347 115.22 15.068 114.345 15.068C112.745 15.068 111.049 15.1107 109.257 15.196C109.15 17.0307 109.097 18.4173 109.097 19.356C109.097 20.2733 109.097 20.86 109.097 21.116L109.225 32.348C109.225 33.0093 109.054 33.3933 108.713 33.5C108.457 33.5853 108.137 33.628 107.753 33.628C107.134 33.628 106.793 33.276 106.729 32.572C106.601 30.9293 106.537 27.868 106.537 23.388C106.537 18.8867 106.601 16.1773 106.729 15.26C106.281 15.2813 105.62 15.292 104.745 15.292C103.87 15.292 102.782 15.2813 101.481 15.26C101.14 15.26 100.873 15.1533 100.681 14.94C100.489 14.7267 100.393 14.4707 100.393 14.172C100.393 13.852 100.521 13.5427 100.777 13.244C101.054 12.9453 101.385 12.7747 101.769 12.732ZM119.138 32.124C119.138 32.508 118.967 32.86 118.626 33.18C118.284 33.4787 117.911 33.628 117.506 33.628C117.122 33.628 116.855 33.372 116.706 32.86C116.642 30.044 116.61 27.2387 116.61 24.444L116.514 16.38C116.514 14.7587 117.228 13.6493 118.658 13.052C119.81 12.5187 121.175 12.252 122.754 12.252C123.564 12.252 124.428 12.4547 125.346 12.86C126.284 13.244 127.116 13.82 127.842 14.588C128.588 15.3347 128.962 16.156 128.962 17.052C128.962 17.9267 128.556 18.876 127.746 19.9C126.935 20.9027 125.932 21.7987 124.738 22.588C123.543 23.356 122.38 23.932 121.25 24.316C123.234 25.7027 124.962 27.196 126.434 28.796C127.906 30.3747 128.642 31.6013 128.642 32.476C128.642 32.7533 128.503 33.02 128.226 33.276C127.948 33.5107 127.607 33.628 127.202 33.628C126.818 33.628 126.487 33.4573 126.21 33.116C125.74 31.9853 124.844 30.8013 123.522 29.564C122.22 28.3053 120.695 27.1107 118.946 25.98L119.138 32.124ZM119.01 22.524C120.439 22.46 122.039 21.8627 123.81 20.732C125.602 19.6013 126.498 18.588 126.498 17.692C126.498 16.7747 126.05 16.0707 125.154 15.58C124.258 15.0893 123.191 14.844 121.954 14.844C120.738 14.844 119.767 14.9933 119.042 15.292C119.02 16.38 119.01 18.7907 119.01 22.524ZM138.149 12.412C138.682 12.412 139.13 12.6467 139.493 13.116C139.856 13.5853 140.325 14.556 140.901 16.028C142.245 19.5053 143.557 24.956 144.837 32.38C144.858 32.4653 144.869 32.5933 144.869 32.764C144.869 32.9133 144.762 33.084 144.549 33.276C144.357 33.4467 144.069 33.532 143.685 33.532C143.322 33.532 143.013 33.4467 142.757 33.276C142.501 33.084 142.33 32.7853 142.245 32.38C142.16 31.9533 142 31.132 141.765 29.916C141.253 27.2067 140.912 25.7987 140.741 25.692C140.485 25.5427 139.632 25.3827 138.181 25.212C136.752 25.0413 135.802 24.956 135.333 24.956C134.864 24.956 134.586 24.9987 134.501 25.084C134.117 25.4253 133.594 28.0173 132.933 32.86C132.848 33.2653 132.442 33.468 131.717 33.468C130.992 33.468 130.629 33.1587 130.629 32.54C130.629 31.004 131.194 28.0707 132.325 23.74C133.456 19.4093 134.394 16.54 135.141 15.132C136.08 13.3187 137.082 12.412 138.149 12.412ZM138.021 15.964C137.701 15.964 137.146 16.9133 136.357 18.812C135.568 20.6893 135.173 21.852 135.173 22.3C135.173 22.4067 135.194 22.4813 135.237 22.524C135.408 22.6947 136.08 22.844 137.253 22.972C138.426 23.1 139.205 23.164 139.589 23.164C139.973 23.164 140.186 23.1427 140.229 23.1C140.272 23.036 140.293 22.8653 140.293 22.588C140.293 22.2893 140.005 21.116 139.429 19.068C138.853 16.9987 138.384 15.964 138.021 15.964ZM159.022 12.508C159.235 12.38 159.513 12.316 159.854 12.316C160.195 12.316 160.505 12.4653 160.782 12.764C161.059 13.0413 161.198 13.372 161.198 13.756C161.198 22.0973 161.23 27.1427 161.294 28.892C161.379 30.62 161.422 31.5053 161.422 31.548C161.422 32.0173 161.294 32.4653 161.038 32.892C160.782 33.2973 160.494 33.5 160.174 33.5C159.875 33.5 159.641 33.4893 159.47 33.468C159.321 33.4253 159.182 33.3827 159.054 33.34C158.926 33.2973 158.798 33.212 158.67 33.084L158.35 32.764C158.265 32.6787 158.147 32.5187 157.998 32.284C157.87 32.028 157.763 31.8253 157.678 31.676C157.593 31.5267 157.454 31.2707 157.262 30.908C157.091 30.524 156.697 29.756 156.078 28.604C155.481 27.452 154.937 26.4173 154.446 25.5C152.761 22.4067 151.193 19.964 149.742 18.172C149.742 25.1053 149.55 29.916 149.166 32.604C149.102 33.116 148.707 33.372 147.982 33.372C147.641 33.372 147.353 33.2867 147.118 33.116C146.905 32.9453 146.798 32.668 146.798 32.284C146.798 31.9 146.873 29.788 147.022 25.948C147.193 22.108 147.278 19.7187 147.278 18.78C147.278 17.82 147.278 17.212 147.278 16.956C147.278 15.42 147.395 14.556 147.63 14.364C147.865 14.172 148.11 14.076 148.366 14.076C149.539 14.076 151.331 15.996 153.742 19.836C154.211 20.5827 155.107 22.1507 156.43 24.54C157.753 26.908 158.542 28.3693 158.798 28.924L158.414 15.644C158.414 13.8093 158.617 12.764 159.022 12.508ZM171.029 12.316C172.416 12.316 173.589 12.5507 174.549 13.02C175.53 13.4893 176.021 14.0867 176.021 14.812C176.021 15.132 175.936 15.4093 175.765 15.644C175.616 15.8787 175.381 15.996 175.061 15.996C174.762 15.996 174.101 15.7613 173.077 15.292C172.053 14.8013 171.114 14.556 170.261 14.556C169.429 14.556 168.565 14.8227 167.669 15.356C166.773 15.8893 166.325 16.54 166.325 17.308C166.325 18.3533 166.869 19.1213 167.957 19.612C168.768 19.9747 169.93 20.3053 171.445 20.604C172.96 20.8813 174.197 21.468 175.157 22.364C176.117 23.2387 176.597 24.572 176.597 26.364C176.597 29.0947 175.776 31.1107 174.133 32.412C173.216 33.1373 171.914 33.5 170.229 33.5C168.565 33.5 166.901 33.0413 165.237 32.124C164.149 31.548 163.605 30.972 163.605 30.396C163.605 30.1827 163.69 29.948 163.861 29.692C164.053 29.436 164.309 29.2227 164.629 29.052C164.949 28.8813 165.237 28.86 165.493 28.988C165.77 29.0947 166.208 29.2973 166.805 29.596C167.402 29.8947 167.84 30.0973 168.117 30.204C169.013 30.5453 169.856 30.716 170.645 30.716C171.434 30.716 172.192 30.332 172.917 29.564C173.664 28.7747 174.037 27.8147 174.037 26.684C174.037 25.1907 173.29 24.1453 171.797 23.548C171.072 23.2493 170.25 23.0253 169.333 22.876C167.434 22.5347 166.005 21.9693 165.045 21.18C164.085 20.3693 163.605 19.1533 163.605 17.532C163.605 15.9107 164.298 14.6413 165.685 13.724C167.072 12.7853 168.853 12.316 171.029 12.316ZM180.373 13.148C180.714 12.9347 181.098 12.828 181.525 12.828C181.951 12.828 182.218 13.0733 182.325 13.564C182.346 16.0387 182.389 19.74 182.453 24.668C182.453 27.676 182.367 30.2253 182.197 32.316C182.154 32.636 181.951 32.924 181.589 33.18C181.247 33.4147 180.895 33.532 180.533 33.532C179.935 33.532 179.637 33.2227 179.637 32.604C179.85 30.4707 179.957 27.8253 179.957 24.668L179.765 13.916C179.85 13.6173 180.053 13.3613 180.373 13.148ZM186.144 12.732L199.104 12.54C199.723 12.732 200.032 13.0413 200.032 13.468C200.032 14.5347 199.595 15.068 198.72 15.068C197.12 15.068 195.424 15.1107 193.632 15.196C193.525 17.0307 193.472 18.4173 193.472 19.356C193.472 20.2733 193.472 20.86 193.472 21.116L193.6 32.348C193.6 33.0093 193.429 33.3933 193.088 33.5C192.832 33.5853 192.512 33.628 192.128 33.628C191.509 33.628 191.168 33.276 191.104 32.572C190.976 30.9293 190.912 27.868 190.912 23.388C190.912 18.8867 190.976 16.1773 191.104 15.26C190.656 15.2813 189.995 15.292 189.12 15.292C188.245 15.292 187.157 15.2813 185.856 15.26C185.515 15.26 185.248 15.1533 185.056 14.94C184.864 14.7267 184.768 14.4707 184.768 14.172C184.768 13.852 184.896 13.5427 185.152 13.244C185.429 12.9453 185.76 12.7747 186.144 12.732ZM205.401 25.756L205.433 24.124C205.433 23.5693 205.251 23.0253 204.889 22.492C204.547 21.9587 203.705 20.412 202.361 17.852C201.017 15.292 200.345 13.852 200.345 13.532C200.345 13.1907 200.483 12.892 200.761 12.636C201.038 12.3587 201.305 12.22 201.561 12.22C201.838 12.22 202.158 12.4653 202.521 12.956C202.905 13.4467 203.641 14.7373 204.729 16.828C205.838 18.9187 206.478 20.0707 206.649 20.284C208.697 16.6573 210.339 14.0973 211.577 12.604C211.875 12.3267 212.11 12.188 212.281 12.188C212.473 12.188 212.611 12.2093 212.697 12.252C213.209 12.4653 213.465 12.7533 213.465 13.116C213.465 13.4573 213.379 13.756 213.209 14.012C213.038 14.268 212.569 14.94 211.801 16.028C210.67 17.6067 209.689 19.2067 208.857 20.828C208.046 22.428 207.641 23.4093 207.641 23.772V29.628L207.737 32.188C207.737 32.6573 207.609 32.988 207.353 33.18C207.097 33.3507 206.777 33.436 206.393 33.436C206.03 33.436 205.785 33.2333 205.657 32.828C205.529 32.4227 205.454 31.8893 205.433 31.228C205.411 30.5667 205.401 29.596 205.401 28.316V25.756Z" fill="white"/>
</svg>
