<svg width="28" height="26" viewBox="0 0 28 26" fill="none" xmlns="http://www.w3.org/2000/svg">
<path d="M24.6666 0.666504H3.33329C2.62605 0.666504 1.94777 0.947455 1.44767 1.44755C0.947577 1.94765 0.666626 2.62593 0.666626 3.33317V27.3332L5.99996 21.9998H24.6666C25.3739 21.9998 26.0521 21.7189 26.5522 21.2188C27.0523 20.7187 27.3333 20.0404 27.3333 19.3332V3.33317C27.3333 2.62593 27.0523 1.94765 26.5522 1.44755C26.0521 0.947455 25.3739 0.666504 24.6666 0.666504ZM5.99996 9.99984H22V12.6665H5.99996M16.6666 16.6665H5.99996V13.9998H16.6666M22 8.6665H5.99996V5.99984H22" fill="white"/>
</svg>
