<svg width="28" height="28" viewBox="0 0 28 28" fill="none" xmlns="http://www.w3.org/2000/svg">
<path d="M24 23.3332V24.6665H0V23.3332L2.66667 20.6665V12.6665C2.66667 8.53317 5.37333 4.89317 9.33333 3.71984C9.33333 3.5865 9.33333 3.4665 9.33333 3.33317C9.33333 2.62593 9.61429 1.94765 10.1144 1.44755C10.6145 0.947455 11.2928 0.666504 12 0.666504C12.7072 0.666504 13.3855 0.947455 13.8856 1.44755C14.3857 1.94765 14.6667 2.62593 14.6667 3.33317C14.6667 3.4665 14.6667 3.5865 14.6667 3.71984C18.6267 4.89317 21.3333 8.53317 21.3333 12.6665V20.6665L24 23.3332ZM14.6667 25.9998C14.6667 26.7071 14.3857 27.3854 13.8856 27.8855C13.3855 28.3856 12.7072 28.6665 12 28.6665C11.2928 28.6665 10.6145 28.3856 10.1144 27.8855C9.61429 27.3854 9.33333 26.7071 9.33333 25.9998" fill="white"/>
</svg>
