<svg width="41" height="39" viewBox="0 0 41 39" fill="none" xmlns="http://www.w3.org/2000/svg">
<g filter="url(#filter0_d_256_2087)">
<path d="M33.3333 0.5H7.66667C5.63167 0.5 4 2.13167 4 4.16667V11.5H7.66667V4.16667H33.3333V29.8333H7.66667V22.5H4V29.8333C4 30.8058 4.38631 31.7384 5.07394 32.4261C5.76158 33.1137 6.69421 33.5 7.66667 33.5H33.3333C34.3058 33.5 35.2384 33.1137 35.9261 32.4261C36.6137 31.7384 37 30.8058 37 29.8333V4.16667C37 2.13167 35.35 0.5 33.3333 0.5ZM16.98 23.5633L19.5833 26.1667L28.75 17L19.5833 7.83333L16.98 10.4183L21.7283 15.1667H4V18.8333H21.7283L16.98 23.5633Z" fill="white"/>
</g>
<defs>
<filter id="filter0_d_256_2087" x="0" y="0.5" width="41" height="41" filterUnits="userSpaceOnUse" color-interpolation-filters="sRGB">
<feFlood flood-opacity="0" result="BackgroundImageFix"/>
<feColorMatrix in="SourceAlpha" type="matrix" values="0 0 0 0 0 0 0 0 0 0 0 0 0 0 0 0 0 0 127 0" result="hardAlpha"/>
<feOffset dy="4"/>
<feGaussianBlur stdDeviation="2"/>
<feComposite in2="hardAlpha" operator="out"/>
<feColorMatrix type="matrix" values="0 0 0 0 0 0 0 0 0 0 0 0 0 0 0 0 0 0 0.25 0"/>
<feBlend mode="normal" in2="BackgroundImageFix" result="effect1_dropShadow_256_2087"/>
<feBlend mode="normal" in="SourceGraphic" in2="effect1_dropShadow_256_2087" result="shape"/>
</filter>
</defs>
</svg>
