<svg width="20" height="20" viewBox="0 0 20 20" fill="none" xmlns="http://www.w3.org/2000/svg">
<rect x="0.5" y="0.5" width="19" height="19" rx="9.5" fill="#C1A88D"/>
<path d="M7.31 9.395C8.03 10.81 9.19 11.97 10.605 12.69L11.705 11.59C11.845 11.45 12.04 11.41 12.215 11.465C12.775 11.65 13.375 11.75 14 11.75C14.1326 11.75 14.2598 11.8027 14.3536 11.8964C14.4473 11.9902 14.5 12.1174 14.5 12.25V14C14.5 14.1326 14.4473 14.2598 14.3536 14.3536C14.2598 14.4473 14.1326 14.5 14 14.5C11.7457 14.5 9.58365 13.6045 7.98959 12.0104C6.39553 10.4163 5.5 8.25434 5.5 6C5.5 5.86739 5.55268 5.74021 5.64645 5.64645C5.74021 5.55268 5.86739 5.5 6 5.5H7.75C7.88261 5.5 8.00979 5.55268 8.10355 5.64645C8.19732 5.74021 8.25 5.86739 8.25 6C8.25 6.625 8.35 7.225 8.535 7.785C8.59 7.96 8.55 8.155 8.41 8.295L7.31 9.395Z" fill="black"/>
<rect x="0.5" y="0.5" width="19" height="19" rx="9.5" stroke="black"/>
</svg>
