<svg width="20" height="20" viewBox="0 0 20 20" fill="none" xmlns="http://www.w3.org/2000/svg">
<rect x="0.5" y="0.5" width="19" height="19" rx="9.5" fill="#C1A88D"/>
<path d="M10 9.75C9.66848 9.75 9.35054 9.6183 9.11612 9.38388C8.8817 9.14946 8.75 8.83152 8.75 8.5C8.75 8.16848 8.8817 7.85054 9.11612 7.61612C9.35054 7.3817 9.66848 7.25 10 7.25C10.3315 7.25 10.6495 7.3817 10.8839 7.61612C11.1183 7.85054 11.25 8.16848 11.25 8.5C11.25 8.66415 11.2177 8.8267 11.1548 8.97835C11.092 9.13001 11 9.26781 10.8839 9.38388C10.7678 9.49996 10.63 9.59203 10.4784 9.65485C10.3267 9.71767 10.1642 9.75 10 9.75ZM10 5C9.07174 5 8.1815 5.36875 7.52513 6.02513C6.86875 6.6815 6.5 7.57174 6.5 8.5C6.5 11.125 10 15 10 15C10 15 13.5 11.125 13.5 8.5C13.5 7.57174 13.1313 6.6815 12.4749 6.02513C11.8185 5.36875 10.9283 5 10 5Z" fill="black"/>
<rect x="0.5" y="0.5" width="19" height="19" rx="9.5" stroke="black"/>
</svg>
